<svg width="120" height="90" viewBox="0 0 120 90" fill="none" xmlns="http://www.w3.org/2000/svg">
<path d="M120 79.0913H0V79.1513H120V79.0913Z" fill="#EBEBEB"/>
<path d="M107.976 82.9791H100.027V83.0391H107.976V82.9791Z" fill="#EBEBEB"/>
<path d="M79.4928 83.6348H77.4065V83.6948H79.4928V83.6348Z" fill="#EBEBEB"/>
<path d="M99.7867 80.7362H95.1807V80.7962H99.7867V80.7362Z" fill="#EBEBEB"/>
<path d="M22.9565 81.1421H12.5902V81.2021H22.9565V81.1421Z" fill="#EBEBEB"/>
<path d="M26.6133 81.1421H25.0934V81.2021H26.6133V81.1421Z" fill="#EBEBEB"/>
<path d="M54.0352 82.1621H31.553V82.2221H54.0352V82.1621Z" fill="#EBEBEB"/>
<path d="M56.8834 68.3191H10.5396C9.78432 68.3191 9.16968 67.7006 9.16968 66.9404V1.37871C9.16968 0.618584 9.78432 0 10.5396 0H56.8834C57.6384 0 58.253 0.618584 58.253 1.37871V66.9404C58.253 67.7006 57.6384 68.3191 56.8834 68.3191ZM10.5396 0.0606264C9.8172 0.0606264 9.22968 0.651917 9.22968 1.37895V66.9407C9.22968 67.6677 9.8172 68.259 10.5396 68.259H56.8834C57.6055 68.259 58.193 67.6677 58.193 66.9407V1.37871C58.193 0.651917 57.6055 0.060385 56.8834 0.060385L10.5396 0.0606264Z" fill="#EBEBEB"/>
<path d="M108.794 68.3191H62.4509C61.6956 68.3191 61.0812 67.7006 61.0812 66.9404V1.37871C61.0812 0.618584 61.6958 0 62.4509 0H108.794C109.55 0 110.164 0.618584 110.164 1.37871V66.9404C110.165 67.7006 109.55 68.3191 108.794 68.3191ZM62.4509 0.0606264C61.7287 0.0606264 61.1412 0.651917 61.1412 1.37895V66.9407C61.1412 67.6677 61.7287 68.259 62.4509 68.259H108.794C109.517 68.259 110.104 67.6677 110.104 66.9407V1.37871C110.104 0.651917 109.517 0.060385 108.794 0.060385L62.4509 0.0606264Z" fill="#EBEBEB"/>
<path d="M105.812 10.6819C106.529 7.62401 104.648 4.55979 101.609 3.83774C98.5708 3.11569 95.5261 5.00924 94.8087 8.06711C94.0912 11.125 95.9727 14.1892 99.0111 14.9113C102.049 15.6333 105.094 13.7398 105.812 10.6819Z" fill="#E0E0E0"/>
<path d="M105.053 10.1425C105.478 7.50539 103.699 5.02064 101.079 4.59265C98.4584 4.16466 95.9894 5.95551 95.5642 8.59263C95.1389 11.2297 96.9184 13.7145 99.5387 14.1425C102.159 14.5705 104.628 12.7796 105.053 10.1425Z" fill="#F0F0F0"/>
<path d="M100.08 6.05017V9.43173L97.8531 8.16365" fill="#F0F0F0"/>
<path d="M100.08 6.05017V9.43173L97.8531 8.16365" stroke="#E0E0E0" stroke-width="0.48" stroke-miterlimit="10" stroke-linecap="round" stroke-linejoin="round"/>
<path d="M31.3586 13.0703H14.8907V43.1701H31.3586V13.0703Z" fill="#E6E6E6"/>
<path d="M30.24 14.2626H16.08V42.0397H30.24V14.2626Z" fill="#F0F0F0"/>
<path d="M23.0664 14.2626L16.08 40.5953V26.3396L19.2768 14.2626H23.0664Z" fill="#FAFAFA"/>
<path d="M26.1888 14.2626L18.8208 42.0397H17.4312L24.7992 14.2626H26.1888Z" fill="#FAFAFA"/>
<path d="M30.84 33.6792H15.36V34.6454H30.84V33.6792Z" fill="#E6E6E6"/>
<path d="M101.821 52.1191C101.821 52.1191 102.2 49.6078 100.38 47.9974C98.56 46.3871 98.7199 45.4294 99.2399 45.3042C99.76 45.1794 100.24 46.7897 101.04 47.2325C101.04 47.2325 101.065 44.9378 100.252 44.0924C99.4399 43.247 99.0134 41.0693 99.7867 41.0309C100.56 40.9925 100.64 42.3244 100.8 43.2688C100.96 44.2132 101.821 45.5417 101.821 45.5417C101.821 45.5417 101.99 43.4886 102.515 42.6432C103.04 41.7978 101.64 39.8655 102.18 39.0201C102.72 38.1747 103.68 39.7851 103.6 41.5966C103.52 43.4082 102.32 45.3405 102.6 47.2325C102.6 47.2325 103.129 45.904 103.605 45.7832C104.08 45.6624 104.56 44.7837 104.88 44.4581C105.2 44.1325 105.6 45.2598 104.88 46.3064C104.16 47.353 102.32 50.1532 102.6 52.4164L101.821 52.1191Z" fill="#E6E6E6"/>
<path d="M100.733 50.9766L100.138 54.7405C99.9535 55.903 100.846 56.9556 102.016 56.9556H102.651C103.821 56.9556 104.713 55.903 104.529 54.7405L103.933 50.9766H100.733Z" fill="#E6E6E6"/>
<path d="M103.208 57.3878H101.821V79.3141H103.208V57.3878Z" fill="#E0E0E0"/>
<path d="M98.285 57.3878H96.8983V79.3141H98.285V57.3878Z" fill="#E6E6E6"/>
<path d="M108.131 57.3878H106.745V79.3141H108.131V57.3878Z" fill="#E6E6E6"/>
<path d="M108.955 55.9868H96.0751V58.3213H108.955V55.9868Z" fill="#E6E6E6"/>
<path d="M60 89.9999C85.6997 89.9999 106.533 88.7755 106.533 87.265C106.533 85.7545 85.6997 84.53 60 84.53C34.3004 84.53 13.4667 85.7545 13.4667 87.265C13.4667 88.7755 34.3004 89.9999 60 89.9999Z" fill="#F5F5F5"/>
<path d="M83.9999 77.9133V51.218H81.3599V77.9133L79.6799 78.4326V79.2367H85.6799V78.4326L83.9999 77.9133Z" fill="#2E353A"/>
<path d="M50.4 51.218H47.76V77.9133L46.08 78.4326V79.2367H52.08V78.4326L50.4 77.9133V51.218Z" fill="#2E353A"/>
<g opacity="0.2">
<path d="M83.9999 54.358H81.3599V77.9133L79.6799 78.4326V79.2367H85.6799V78.4326L83.9999 77.9133V54.358Z" fill="white"/>
<path d="M50.4 54.358H47.76V77.9133L46.08 78.4326V79.2367H52.08V78.4326L50.4 77.9133V54.358Z" fill="white"/>
</g>
<path d="M92.16 52.1842L92.16 9.19006L39.6 9.19006L39.6 52.1842L92.16 52.1842Z" fill="#2E353A"/>
<path opacity="0.2" d="M92.16 52.1842L92.16 9.19006L39.6 9.19006L39.6 52.1842L92.16 52.1842Z" fill="white"/>
<path d="M90.9914 10.3834H40.7683V50.9675H90.9914V10.3834Z" fill="white"/>
<path d="M46.4401 14.0209V25.011H63.842L46.4401 14.0209Z" stroke="#263238" stroke-width="0.24" stroke-miterlimit="10"/>
<path d="M47.3133 25.0388V24.1405H46.4208" stroke="#263238" stroke-width="0.190392" stroke-miterlimit="10"/>
<path d="M55.6473 17.7204C55.5688 17.7204 55.4927 17.7017 55.4188 17.6644C55.3457 17.6263 55.2947 17.5703 55.2657 17.4965L55.316 17.4599L55.2771 17.6975H55.0944V15.984H55.3V16.7973L55.2566 16.7654C55.2947 16.7037 55.3491 16.6534 55.4199 16.6146C55.4908 16.575 55.5665 16.5552 55.6473 16.5552C55.7516 16.5552 55.8415 16.5826 55.9169 16.6374C55.9922 16.6915 56.0501 16.7631 56.0905 16.8522C56.1316 16.9405 56.1522 17.0357 56.1522 17.1378C56.1522 17.2467 56.1297 17.3453 56.0848 17.4336C56.0398 17.5212 55.9793 17.5909 55.9031 17.6427C55.827 17.6945 55.7417 17.7204 55.6473 17.7204ZM55.6221 17.5376C55.6876 17.5376 55.7444 17.5197 55.7923 17.4839C55.8403 17.4473 55.8772 17.399 55.9031 17.3388C55.929 17.2779 55.942 17.2109 55.942 17.1378C55.942 17.0616 55.929 16.9934 55.9031 16.9333C55.8772 16.8731 55.8403 16.8255 55.7923 16.7905C55.7444 16.7555 55.6876 16.7379 55.6221 16.7379C55.5635 16.7379 55.5087 16.7528 55.4576 16.7825C55.4074 16.8114 55.3666 16.8556 55.3354 16.915C55.3042 16.9736 55.2886 17.0479 55.2886 17.1378C55.2886 17.2314 55.3042 17.3076 55.3354 17.3662C55.3666 17.4249 55.4074 17.4683 55.4576 17.4965C55.5087 17.5239 55.5635 17.5376 55.6221 17.5376Z" fill="#263238"/>
<path d="M47.2061 34.3159C47.1277 34.3159 47.0515 34.2973 46.9776 34.26C46.9045 34.2219 46.8535 34.1659 46.8245 34.092L46.8748 34.0555L46.836 34.2931H46.6532V32.5796H46.8588V33.3929L46.8154 33.3609C46.8535 33.2992 46.9079 33.249 46.9788 33.2101C47.0496 33.1705 47.1254 33.1507 47.2061 33.1507C47.3104 33.1507 47.4003 33.1782 47.4757 33.233C47.5511 33.2871 47.609 33.3586 47.6493 33.4478C47.6905 33.5361 47.711 33.6313 47.711 33.7333C47.711 33.8422 47.6885 33.9409 47.6436 34.0292C47.5987 34.1168 47.5381 34.1865 47.462 34.2383C47.3858 34.29 47.3005 34.3159 47.2061 34.3159ZM47.181 34.1332C47.2465 34.1332 47.3032 34.1153 47.3512 34.0795C47.3992 34.0429 47.4361 33.9946 47.462 33.9344C47.4879 33.8735 47.5008 33.8064 47.5008 33.7333C47.5008 33.6572 47.4879 33.589 47.462 33.5289C47.4361 33.4687 47.3992 33.4211 47.3512 33.3861C47.3032 33.351 47.2465 33.3335 47.181 33.3335C47.1223 33.3335 47.0675 33.3484 47.0165 33.3781C46.9662 33.407 46.9255 33.4512 46.8942 33.5106C46.863 33.5692 46.8474 33.6435 46.8474 33.7333C46.8474 33.827 46.863 33.9032 46.8942 33.9618C46.9255 34.0204 46.9662 34.0639 47.0165 34.092C47.0675 34.1195 47.1223 34.1332 47.181 34.1332Z" fill="#263238"/>
<path d="M53.2149 26.9772C53.0885 26.9772 52.9823 26.9517 52.8962 26.9007C52.8109 26.8489 52.7462 26.7796 52.702 26.6927C52.6586 26.6052 52.6369 26.5081 52.6369 26.4014C52.6369 26.2903 52.6579 26.1901 52.6997 26.101C52.7424 26.0119 52.8075 25.9415 52.8951 25.8897C52.9827 25.8379 53.0946 25.812 53.2309 25.812C53.2896 25.812 53.3448 25.8181 53.3966 25.8303C53.4491 25.8417 53.496 25.8577 53.5371 25.8783L53.5051 26.0587C53.4632 26.0389 53.4187 26.0233 53.3715 26.0119C53.325 26.0005 53.2766 25.9948 53.2264 25.9948C53.103 25.9948 53.0089 26.0298 52.9442 26.0999C52.8795 26.1699 52.8471 26.2674 52.8471 26.3923C52.8471 26.5142 52.878 26.612 52.9396 26.6859C53.0013 26.7598 53.0954 26.7967 53.2218 26.7967C53.2736 26.7967 53.3231 26.7906 53.3703 26.7784C53.4183 26.7662 53.464 26.7495 53.5074 26.7282L53.5348 26.8927C53.5043 26.914 53.4598 26.9334 53.4012 26.9509C53.3425 26.9684 53.2804 26.9772 53.2149 26.9772Z" fill="#263238"/>
<path d="M47.1695 37.6909C47.0431 37.6909 46.9369 37.6654 46.8508 37.6144C46.7655 37.5626 46.7008 37.4933 46.6566 37.4065C46.6132 37.3189 46.5915 37.2218 46.5915 37.1152C46.5915 37.004 46.6125 36.9039 46.6543 36.8148C46.697 36.7257 46.7621 36.6552 46.8497 36.6034C46.9373 36.5516 47.0492 36.5257 47.1855 36.5257C47.2442 36.5257 47.2994 36.5318 47.3512 36.544C47.4037 36.5554 47.4506 36.5714 47.4917 36.592L47.4597 36.7725C47.4178 36.7527 47.3733 36.7371 47.326 36.7257C47.2796 36.7142 47.2312 36.7085 47.181 36.7085C47.0576 36.7085 46.9635 36.7435 46.8988 36.8136C46.8341 36.8837 46.8017 36.9812 46.8017 37.1061C46.8017 37.2279 46.8325 37.3258 46.8942 37.3996C46.9559 37.4735 47.05 37.5104 47.1764 37.5104C47.2282 37.5104 47.2777 37.5044 47.3249 37.4922C47.3729 37.48 47.4186 37.4632 47.462 37.4419L47.4894 37.6064C47.4589 37.6277 47.4144 37.6471 47.3557 37.6647C47.2971 37.6822 47.235 37.6909 47.1695 37.6909Z" fill="#263238"/>
<path d="M44.9051 20.3375C44.8358 20.3375 44.7752 20.3235 44.7234 20.2953C44.6717 20.2671 44.6313 20.2286 44.6023 20.1799C44.5742 20.1312 44.5601 20.0756 44.5601 20.0131C44.5601 19.9499 44.5738 19.8958 44.6012 19.8509C44.6294 19.8052 44.6667 19.7675 44.7132 19.7378C44.7604 19.7073 44.8129 19.6834 44.8708 19.6658C44.9287 19.6476 44.9885 19.6346 45.0502 19.627C45.1126 19.6186 45.1724 19.6141 45.2295 19.6133C45.2295 19.5067 45.2086 19.437 45.1667 19.4042C45.1248 19.3715 45.0642 19.3551 44.985 19.3551C44.9432 19.3551 44.8982 19.3616 44.8502 19.3745C44.803 19.3875 44.7497 19.4145 44.6903 19.4556L44.6606 19.2889C44.7055 19.2546 44.7615 19.2268 44.8285 19.2055C44.8956 19.1834 44.966 19.1723 45.0399 19.1723C45.1343 19.1723 45.2105 19.1891 45.2683 19.2226C45.3262 19.2554 45.3685 19.311 45.3951 19.3894C45.4218 19.4678 45.4351 19.5745 45.4351 19.7093V19.9377C45.4351 19.991 45.4374 20.0352 45.442 20.0702C45.4473 20.1045 45.4587 20.1304 45.4762 20.1479C45.4945 20.1647 45.5235 20.173 45.5631 20.173H45.5836L45.5516 20.3375H45.5357C45.4694 20.3375 45.418 20.3311 45.3814 20.3181C45.3456 20.3052 45.3182 20.2865 45.2992 20.2621C45.2801 20.2378 45.263 20.2081 45.2478 20.173C45.2059 20.2218 45.1564 20.2614 45.0993 20.2919C45.0422 20.3223 44.9774 20.3375 44.9051 20.3375ZM44.9439 20.173C44.9987 20.173 45.0517 20.1593 45.1027 20.1319C45.1545 20.1045 45.1968 20.0679 45.2295 20.0223V19.7549C45.1206 19.7588 45.0323 19.7694 44.9645 19.7869C44.8975 19.8044 44.8483 19.8307 44.8171 19.8658C44.7859 19.9008 44.7703 19.9461 44.7703 20.0017C44.7703 20.0619 44.7863 20.1056 44.8183 20.1331C44.851 20.1597 44.8929 20.173 44.9439 20.173Z" fill="#263238"/>
<path d="M46.9159 30.9407C46.8466 30.9407 46.7861 30.9266 46.7343 30.8984C46.6825 30.8702 46.6422 30.8318 46.6132 30.783C46.585 30.7343 46.5709 30.6787 46.5709 30.6163C46.5709 30.5531 46.5847 30.499 46.6121 30.4541C46.6402 30.4084 46.6776 30.3707 46.724 30.341C46.7712 30.3105 46.8238 30.2865 46.8817 30.269C46.9395 30.2507 46.9993 30.2378 47.061 30.2302C47.1235 30.2218 47.1832 30.2172 47.2404 30.2164C47.2404 30.1098 47.2194 30.0401 47.1775 30.0074C47.1356 29.9746 47.0751 29.9583 46.9959 29.9583C46.954 29.9583 46.9091 29.9647 46.8611 29.9777C46.8139 29.9906 46.7606 30.0177 46.7012 30.0588L46.6715 29.892C46.7164 29.8577 46.7724 29.8299 46.8394 29.8086C46.9064 29.7865 46.9769 29.7755 47.0507 29.7755C47.1452 29.7755 47.2213 29.7922 47.2792 29.8258C47.3371 29.8585 47.3794 29.9141 47.406 29.9925C47.4327 30.071 47.446 30.1776 47.446 30.3124V30.5409C47.446 30.5942 47.4483 30.6384 47.4528 30.6734C47.4582 30.7077 47.4696 30.7335 47.4871 30.7511C47.5054 30.7678 47.5343 30.7762 47.5739 30.7762H47.5945L47.5625 30.9407H47.5465C47.4803 30.9407 47.4289 30.9342 47.3923 30.9213C47.3565 30.9083 47.3291 30.8897 47.31 30.8653C47.291 30.8409 47.2739 30.8112 47.2586 30.7762C47.2168 30.8249 47.1673 30.8645 47.1101 30.895C47.053 30.9255 46.9883 30.9407 46.9159 30.9407ZM46.9548 30.7762C47.0096 30.7762 47.0625 30.7625 47.1136 30.7351C47.1654 30.7077 47.2076 30.6711 47.2404 30.6254V30.3581C47.1315 30.3619 47.0431 30.3726 46.9753 30.3901C46.9083 30.4076 46.8592 30.4339 46.828 30.4689C46.7968 30.5039 46.7811 30.5492 46.7811 30.6048C46.7811 30.665 46.7971 30.7088 46.8291 30.7362C46.8619 30.7629 46.9038 30.7762 46.9548 30.7762Z" fill="#263238"/>
<path d="M67.92 14.1417H77.52" stroke="#263238" stroke-width="0.24" stroke-miterlimit="10"/>
<path d="M67.92 16.0741H73.2" stroke="#263238" stroke-width="0.24" stroke-miterlimit="10"/>
<path d="M67.92 17.5232H75.36" stroke="#263238" stroke-width="0.24" stroke-miterlimit="10"/>
<path d="M67.92 19.2141H74.16" stroke="#263238" stroke-width="0.24" stroke-miterlimit="10"/>
<path d="M67.92 21.1464H77.28" stroke="#263238" stroke-width="0.24" stroke-miterlimit="10"/>
<path d="M67.92 22.8372H77.04" stroke="#263238" stroke-width="0.24" stroke-miterlimit="10"/>
<path d="M67.92 24.5278H74.16" stroke="#263238" stroke-width="0.24" stroke-miterlimit="10"/>
<path d="M78.72 39.2618H85.2" stroke="#263238" stroke-width="0.24" stroke-miterlimit="10"/>
<path d="M78.72 41.1942H82.32" stroke="#263238" stroke-width="0.24" stroke-miterlimit="10"/>
<path d="M78.72 42.6433H83.76" stroke="#263238" stroke-width="0.24" stroke-miterlimit="10"/>
<path d="M78.72 44.3342H83.04" stroke="#263238" stroke-width="0.24" stroke-miterlimit="10"/>
<path d="M45.84 42.4019H52.32" stroke="#263238" stroke-width="0.24" stroke-miterlimit="10"/>
<path d="M45.84 44.3342H49.44" stroke="#263238" stroke-width="0.24" stroke-miterlimit="10"/>
<path d="M45.84 45.7836H50.88" stroke="#263238" stroke-width="0.24" stroke-miterlimit="10"/>
<path d="M45.84 47.4742H50.16" stroke="#263238" stroke-width="0.24" stroke-miterlimit="10"/>
<path d="M80.64 17.5232H86.88" stroke="#263238" stroke-width="0.24" stroke-miterlimit="10"/>
<path d="M80.64 19.2141H86.88" stroke="#263238" stroke-width="0.24" stroke-miterlimit="10"/>
<path d="M80.64 20.9048H84.96" stroke="#263238" stroke-width="0.24" stroke-miterlimit="10"/>
<path d="M62.16 42.4019H68.4" stroke="#263238" stroke-width="0.24" stroke-miterlimit="10"/>
<path d="M62.16 44.0927H68.4" stroke="#263238" stroke-width="0.24" stroke-miterlimit="10"/>
<path d="M62.16 45.7836H66.48" stroke="#263238" stroke-width="0.24" stroke-miterlimit="10"/>
<path d="M50.4 31.291H64.32" stroke="#263238" stroke-width="0.24" stroke-miterlimit="10"/>
<path d="M50.4 34.4312H64.32" stroke="#263238" stroke-width="0.24" stroke-miterlimit="10"/>
<path d="M50.4 37.5712H64.32" stroke="#263238" stroke-width="0.24" stroke-miterlimit="10"/>
<path d="M73.5519 39.2756C75.9704 39.2756 77.9309 37.3024 77.9309 34.8684C77.9309 32.4344 75.9704 30.4613 73.5519 30.4613C71.1334 30.4613 69.1729 32.4344 69.1729 34.8684C69.1729 37.3024 71.1334 39.2756 73.5519 39.2756Z" stroke="#263238" stroke-width="0.190392" stroke-miterlimit="10"/>
<path d="M73.5601 30.4456V34.914H78.0001" stroke="#263238" stroke-width="0.24" stroke-miterlimit="10"/>
<path d="M72.0636 32.2851L68.3573 30.117C68.3573 30.117 67.542 30.1998 66.5885 30.0344C65.635 29.8689 65.4219 29.859 65.5371 29.0987C65.6523 28.3383 65.4919 27.3233 65.7773 27.2158C66.0627 27.1084 68.0832 27.9682 68.4331 28.5489L72.174 29.896L72.0636 32.2851Z" fill="#B97964"/>
<path d="M83.04 28.6028V32.9529C83.04 32.9529 82.1184 33.2597 80.9736 33.5809C79.6608 33.9481 78.0552 34.3345 77.22 34.2935C75.66 34.2162 70.38 31.4578 70.38 31.4578L71.34 29.6173C71.34 29.6173 77.1 31.5931 77.82 31.4505C78.54 31.308 83.04 28.6028 83.04 28.6028Z" fill="#407BFF"/>
<path opacity="0.2" d="M83.04 30.7211V32.9529C83.04 32.9529 82.1184 33.2597 80.9736 33.5809C81.396 32.2862 82.4496 31.2307 83.04 30.7211Z" fill="black"/>
<path d="M84.0094 44.0779C84.0094 44.0779 81.4083 58.0305 80.7142 63.7588C79.8075 71.2318 76.0997 82.1647 76.0997 82.1647L77.5822 82.5504C77.5822 82.5504 82.8097 73.2603 83.8287 64.9008C87.9809 56.3578 88.3162 45.8377 88.3162 45.8377L84.0094 44.0779Z" fill="#B97964"/>
<path d="M73.3392 85.5466C73.5792 85.4355 73.8372 85.3695 74.101 85.3519C74.101 85.3519 75.0125 84.8118 75.9158 82.7143L76.9318 82.7083C77.2836 82.7124 77.5951 82.937 77.7122 83.2708C77.7288 83.3162 77.7386 83.364 77.741 83.4123C77.7307 83.6594 77.7048 83.9056 77.663 84.1493C77.5716 84.914 77.069 86.5548 77.069 86.5548L76.897 86.5106L77.2099 84.985C77.3141 84.4667 76.7729 84.9674 76.5218 85.4901C76.2708 86.0128 75.8858 86.5388 74.7638 86.2806C73.4563 85.9729 72.9293 85.7833 73.3392 85.5466Z" fill="#2E353A"/>
<path d="M86.7106 43.8553C86.7106 43.8553 87.0334 58.0475 87.5316 63.7967C88.1803 71.297 86.7996 82.7651 86.7996 82.7651L88.3294 82.8336C88.3294 82.8336 91.5343 72.6561 90.8134 64.2655C93.12 55.043 91.2859 44.6807 91.2859 44.6807L86.7106 43.8553Z" fill="#B97964"/>
<path d="M84.4187 86.0137C84.6453 85.8772 84.8949 85.7835 85.1551 85.7371C85.1551 85.7371 86.0032 85.1012 86.6762 82.9174L87.6856 82.801C88.0358 82.7667 88.3699 82.9563 88.522 83.2754C88.5434 83.3188 88.5583 83.3652 88.5657 83.413C88.582 83.6597 88.5825 83.9072 88.5671 84.1541C88.5585 84.9244 88.235 86.6101 88.235 86.6101L88.0591 86.5849L88.2064 85.0343C88.2542 84.5077 87.7699 85.0642 87.5767 85.6113C87.3832 86.1581 87.0571 86.7231 85.9137 86.5886C84.581 86.4246 84.0367 86.2937 84.4187 86.0137Z" fill="#2E353A"/>
<path d="M91.8782 19.7167C91.8782 19.7167 92.64 19.758 93.2798 21.0157C93.9199 22.2737 93.1197 23.6707 92.9599 24.3408C92.7998 25.0108 91.9999 25.6018 93.3199 26.6146C94.6399 27.6274 95.4302 28.7013 94.3598 29.7964C93.2894 30.8916 94.4661 31.7338 92.9131 32.5389C91.36 33.3442 85.68 32.1365 84.96 30.5665C84.24 28.9964 85.1088 27.8042 85.1544 27.3334C85.2 26.8629 84.24 26.3847 84 24.8523C83.76 23.32 84.9888 22.9896 85.1544 22.2894C85.32 21.5891 84.5488 20.7034 85.1544 19.2138C85.7599 17.7242 91.7966 17.4013 91.8782 19.7167Z" fill="#2E353A"/>
<path d="M95.712 40.6121C94.8024 40.7304 93.75 38.9431 92.9892 37.2764C92.3412 35.8634 91.8871 34.5349 91.8871 34.5349L92.3656 33.1727L93.6189 29.6172C93.6189 29.6172 94.4964 30.8466 95.814 35.5277C96.0252 36.2813 96.2791 37.1243 96.5119 38.0663C96.5119 38.0663 96.4802 38.3489 96.7202 38.7305V38.7329C96.72 39.4382 96.804 40.4696 95.712 40.6121Z" fill="#407BFF"/>
<path opacity="0.2" d="M92.9736 37.2765C92.3256 35.8635 91.8792 34.535 91.8792 34.535L92.3616 33.1727C92.6952 34.1147 93.1872 35.8224 92.9736 37.2765Z" fill="black"/>
<path opacity="0.2" d="M96.72 38.7305V38.7329C96.24 39.0518 95.7384 39.047 95.4576 38.4648C94.8888 37.2885 95.4372 36.1243 95.8284 35.5277C96.0396 36.2813 96.2864 37.1243 96.5192 38.0663C96.5192 38.0663 96.48 38.3489 96.72 38.7305Z" fill="black"/>
<path d="M82.4006 40.1477C82.4006 40.1477 87.1896 41.8788 91.7748 41.5566C91.7748 41.5566 91.3598 35.8558 88.9598 34.8415C86.5601 33.8273 82.4014 35.2765 82.4006 40.1477Z" fill="#407BFF"/>
<path opacity="0.2" d="M82.4006 40.1477C82.4006 40.1477 87.1896 41.8788 91.7748 41.5566C91.7748 41.5566 91.3598 35.8558 88.9598 34.8415C86.5601 33.8273 82.4014 35.2765 82.4006 40.1477Z" fill="black"/>
<path d="M83.0808 40.5543L91.0032 41.2427C91.128 39.262 91.2528 37.75 91.8456 35.3877C92.0352 34.6245 92.2728 33.7718 92.5776 32.7863C92.7408 32.2598 92.9208 31.6946 93.1224 31.0859C93.2736 30.6246 93.4368 30.1342 93.6168 29.6173C92.5392 29.2719 91.4424 29.0038 90.3288 28.8178C89.1552 28.6077 87.9648 28.4821 86.772 28.441C85.2312 28.429 83.46 28.6029 83.46 28.6029C83.46 28.6029 83.208 28.6632 83.0496 30.3081C82.9056 31.8516 82.764 34.9385 83.0808 40.5543Z" fill="#407BFF"/>
<path d="M83.1187 41.7497L91.0344 42.4069C91.1592 40.4263 91.2528 37.75 91.8456 35.3877C92.0352 34.6245 92.2728 33.7718 92.5776 32.7863C92.7408 32.2598 92.9208 31.6946 93.1224 31.0859C93.2736 30.6246 93.4368 30.1342 93.6168 29.6173C92.5392 29.2719 91.4424 29.0038 90.3288 28.8178C89.1552 28.6077 87.9648 28.4821 86.772 28.441C85.2312 28.429 83.46 28.6029 83.46 28.6029C83.46 28.6029 83.208 28.6632 83.0496 30.3081C82.9056 31.8516 82.8019 36.1338 83.1187 41.7497Z" fill="#2E353A"/>
<path d="M87.4257 30.2016C89.3781 29.9501 89.9647 29.1108 89.9647 29.1108C88.726 27.9345 89.7552 25.8964 89.7552 25.8964L87.4051 26.3379C87.4668 26.7287 87.4932 27.0565 87.497 27.3335C87.5148 28.769 86.8699 28.783 86.8699 28.783C86.4573 29.5605 87.4257 30.2016 87.4257 30.2016Z" fill="#B97964"/>
<path opacity="0.2" d="M87.4052 26.3379C87.4668 26.7287 87.4932 27.0565 87.4971 27.3335C89.0844 27.3335 89.7552 25.8964 89.7552 25.8964L87.4052 26.3379Z" fill="black"/>
<path d="M88.7043 19.725C86.6614 19.6124 85.944 20.6769 85.679 22.7873C85.3478 25.4246 85.8288 27.3376 88.4138 26.913C91.9246 26.3362 92.0969 19.912 88.7043 19.725Z" fill="#B97964"/>
<path d="M87.006 22.745C87.006 22.745 86.6938 23.2665 86.3652 23.565C86.3652 23.565 86.5248 23.8541 86.8911 23.8273L87.006 22.745Z" fill="#A24E3F"/>
<path d="M88.2653 22.6457C88.2521 22.8143 88.3323 22.9583 88.4439 22.967C88.5557 22.9757 88.6568 22.8462 88.67 22.6776C88.6832 22.509 88.6033 22.3651 88.4914 22.3564C88.3798 22.3477 88.2785 22.4771 88.2653 22.6457Z" fill="#2E353A"/>
<path d="M88.5375 22.3681L88.1842 22.1954C88.1842 22.1954 88.3416 22.5184 88.5375 22.3681Z" fill="#2E353A"/>
<path d="M86.1848 22.4464C86.1716 22.615 86.2515 22.7589 86.3633 22.7676C86.4752 22.7763 86.5762 22.6469 86.5894 22.4783C86.6026 22.3097 86.5225 22.1657 86.4109 22.157C86.299 22.1483 86.198 22.2778 86.1848 22.4464Z" fill="#2E353A"/>
<path d="M86.4569 22.1689L86.1036 21.9965C86.1036 21.9965 86.2611 22.3194 86.4569 22.1689Z" fill="#2E353A"/>
<path d="M88.3632 21.2272C88.3632 21.2272 88.9413 21.1837 89.2322 21.5869" stroke="#2E353A" stroke-width="0.173928" stroke-miterlimit="10" stroke-linecap="round" stroke-linejoin="round"/>
<path d="M86.8831 21.0585C86.8831 21.0585 86.5296 20.9042 86.0597 21.1827" stroke="#2E353A" stroke-width="0.173928" stroke-miterlimit="10" stroke-linecap="round" stroke-linejoin="round"/>
<path d="M87.1448 24.6523C87.2494 24.9066 87.3442 25.3793 87.3442 25.3793C87.3884 25.3784 87.4325 25.3774 87.4765 25.3742C88.0743 25.3465 88.3426 25.1349 88.4588 24.9086C88.5219 24.7846 88.538 24.6547 88.5373 24.5494C88.5377 24.4277 88.5104 24.3407 88.5104 24.3407C88.2022 24.546 87.6469 24.6151 87.3485 24.6395C87.2237 24.6511 87.1448 24.6523 87.1448 24.6523Z" fill="#2E353A"/>
<path d="M87.3485 24.6395L87.4128 24.8523C87.9759 24.8247 88.3688 24.7293 88.5372 24.5494C88.5377 24.4277 88.5104 24.3407 88.5104 24.3407C88.2022 24.5462 87.6466 24.6151 87.3485 24.6395Z" fill="white"/>
<path d="M87.4764 25.3744C88.0743 25.3466 88.3426 25.135 88.4588 24.9087C88.2555 24.9261 88.0121 24.9698 87.8009 25.072C87.6392 25.1495 87.5403 25.2621 87.4764 25.3744Z" fill="#DE5753"/>
<path d="M90.7483 23.3131C90.7483 23.3131 89.885 21.5713 90.1008 20.2752C90.1008 20.2752 86.1434 18.3876 85.7184 22.5119C85.7184 22.5119 85.5228 18.8183 89.0388 18.9301C92.5493 19.0417 92.2584 24.2114 90.3612 25.6519C90.3612 25.6519 91.2816 24.402 90.7483 23.3131Z" fill="#2E353A"/>
<path d="M90.391 23.7286C90.4227 23.3984 90.7925 22.8569 91.4004 22.9576C92.0297 23.062 92.2601 24.3866 90.6684 24.6141C90.4402 24.6469 90.3248 24.4177 90.391 23.7286Z" fill="#B97964"/>
<path d="M91.7748 29.3287C91.7748 29.3287 89.4825 31.2006 87.3484 31.1704C85.2144 31.1402 84.4644 28.7248 84.4644 28.7248C84.4644 28.7248 87.7744 27.7386 91.7748 29.3287Z" fill="#B97964"/>
<path d="M91.5799 28.9764C91.5799 28.9764 87.8148 35.7572 91.7748 41.5566C91.7748 41.5566 92.3136 34.4046 93.6168 29.6172L91.5799 28.9764Z" fill="#407BFF"/>
<path d="M84.6744 28.4403C84.6744 28.4403 84.6401 33.2412 83.96 35.0237C83.28 36.8063 82.4007 40.1475 82.4007 40.1475C82.4007 40.1475 81.74 32.1542 83.04 28.6026L84.6744 28.4403Z" fill="#407BFF"/>
<path d="M90.1008 20.2752C90.1008 20.2752 88.5802 19.746 87.24 20.2752C85.8999 20.8045 86.2649 22.2013 85.5869 22.4626" stroke="#2E353A" stroke-width="0.12" stroke-miterlimit="10" stroke-linecap="round" stroke-linejoin="round"/>
<path d="M102.18 27.575L101.55 27.2134L99.24 27.8491L96.11 27.0339L95.4 29.4191C95.4 29.4191 95.25 32.0761 95.4 32.1063C95.55 32.1365 98.97 32.3176 98.97 32.3176L100.71 31.2005L102.18 27.575Z" fill="#E0E0E0"/>
<path d="M95.28 27.2135L93.8998 32.7129L98.16 33.1936L101.1 32.3781L102.6 27.2135L99.24 28.0908L95.28 27.2135Z" fill="#407BFF"/>
<path opacity="0.4" d="M99.24 28.0908L98.16 33.1945L93.9 32.7139L95.28 27.214L99.24 28.0908Z" fill="white"/>
<path opacity="0.2" d="M99.24 28.0908L98.16 33.1936L101.1 32.3781L102.6 27.2135L99.24 28.0908Z" fill="white"/>
<path d="M95.5001 38.175L97.4801 34.3482C97.4801 34.3482 97.3601 33.5323 97.4801 32.5662C97.6001 31.6 97.6001 31.385 98.3602 31.4657C99.1203 31.5461 100.12 31.3382 100.24 31.62C100.36 31.9019 99.6 33.9731 99.0401 34.3519L97.8764 38.175H95.5001Z" fill="#B97964"/>
<path d="M94.8597 40.2773C96.12 41.3553 97.56 40.4292 98.3601 37.3295L95.8802 37.0076L94.8597 40.2773Z" fill="#407BFF"/>
<path d="M96.0063 36.3265L95.5001 37.2263L98.64 37.6516V36.7258L96.0063 36.3265Z" fill="#2E353A"/>
<path d="M70.2521 31.6903L71.1216 32.241L71.6897 29.1041L70.7707 29.0612L70.2521 31.6903Z" fill="#2E353A"/>
<path d="M83.1187 41.7495L78.1265 71.2715C78.1265 71.2715 90.2085 72.7227 94.3044 71.8737C94.3044 71.8737 95.3088 50.745 91.0346 42.407L83.1187 41.7495Z" fill="#407BFF"/>
<path opacity="0.4" d="M83.1187 41.7495L78.1265 71.2715C78.1265 71.2715 90.2085 72.7227 94.3044 71.8737C94.3044 71.8737 95.3088 50.745 91.0346 42.407L83.1187 41.7495Z" fill="white"/>
<path d="M66.9108 28.774C66.9108 28.774 66.4133 28.2571 65.6674 27.4815C64.9248 26.7025 63.9175 25.6811 62.9157 24.6545C62.412 24.1442 61.9082 23.6335 61.4359 23.155C60.9624 22.6775 60.5208 22.2319 60.1418 21.85C59.7631 21.4681 59.4475 21.1498 59.2267 20.9268C59.1158 20.8157 59.0287 20.7285 58.9694 20.6691C58.9001 20.6198 58.8038 20.6534 58.8038 20.6534L59.1425 20.3109C59.1425 20.3109 59.1096 20.408 59.159 20.4776C59.2183 20.537 59.3054 20.6242 59.4163 20.7353C59.6388 20.9566 59.9566 21.2727 60.3379 21.6519C60.7193 22.0314 61.1642 22.4739 61.6406 22.948C62.1185 23.421 62.628 23.9256 63.1375 24.4301C64.1623 25.4335 65.1821 26.4424 65.9594 27.1861C66.7334 27.9332 67.2494 28.4313 67.2494 28.4313L66.9108 28.774Z" fill="#2E353A"/>
<path d="M76.0997 82.1646C76.0997 82.1646 74.8313 84.8363 74.1007 85.3517C74.1007 85.3517 75.0799 85.9394 76.0997 84.6315C77.4182 82.94 77.7408 83.4124 77.7408 83.4124C77.7408 83.4124 77.6849 82.8334 77.5822 82.5501C77.3839 82.0045 76.0997 82.1646 76.0997 82.1646Z" fill="#B97964"/>
<path d="M86.9552 82.1428C86.9552 82.1428 86.5952 83.1317 86.1152 84.2186C85.6352 85.3055 85.1552 85.7372 85.1552 85.7372C85.1552 85.7372 85.9889 86.0096 86.4389 85.4836C86.8889 84.9575 87.6586 83.0573 88.5219 83.2756C88.5219 83.2756 88.4588 83.0488 88.3294 82.8336C88.2 82.6184 86.9552 82.1428 86.9552 82.1428Z" fill="#B97964"/>
<path d="M46.6858 86.7244L46.8807 56.7137H44.9299L45.1248 86.7244H46.6858Z" fill="#407BFF"/>
<path opacity="0.5" d="M45.1248 86.7245H46.6872L46.8432 62.7456L46.8816 56.7736H44.9304L44.9688 62.7456L45.1248 86.7245Z" fill="white"/>
<path opacity="0.2" d="M46.8816 56.7736L46.8432 62.8121H44.9688L44.9304 56.7736H46.8816Z" fill="black"/>
<path d="M61.8413 86.7244L60.0888 56.7137H58.1383L60.2801 86.7244H61.8413Z" fill="#407BFF"/>
<path opacity="0.5" d="M60.2796 86.7245H61.8417L60.1944 58.5525L60.0888 56.7736H58.1376L58.2672 58.5525L60.2796 86.7245Z" fill="white"/>
<path opacity="0.2" d="M60.1944 58.4643H58.2672L58.1376 56.7736H60.0888L60.1944 58.4643Z" fill="black"/>
<path d="M31.5304 86.7244L33.6722 56.7137H31.7217L29.9695 86.7244H31.5304Z" fill="#407BFF"/>
<path opacity="0.3" d="M31.53 86.7245L33.5424 58.5525L33.672 56.7736H31.7208L31.6152 58.5525L29.9697 86.7245H31.53Z" fill="white"/>
<path opacity="0.2" d="M31.7207 56.7736H33.6719L33.5423 58.4643H31.6151L31.7207 56.7736Z" fill="black"/>
<path d="M61.1162 57.6408H30.6945C30.408 57.6408 30.1757 57.407 30.1757 57.1186V55.787H61.6351V57.1186C61.6351 57.407 61.4028 57.6408 61.1162 57.6408Z" fill="#407BFF"/>
<path opacity="0.4" d="M61.1162 57.6408H30.6945C30.408 57.6408 30.1757 57.407 30.1757 57.1186V55.787H61.6351V57.1186C61.6351 57.407 61.4028 57.6408 61.1162 57.6408Z" fill="white"/>
<path opacity="0.2" d="M61.6349 55.7867H30.1754V56.7138H61.6349V55.7867Z" fill="black"/>
<path d="M62.5464 56.0285H29.2641C28.9776 56.0285 28.7452 55.7947 28.7452 55.5063C28.7452 55.2179 28.9776 54.9841 29.2641 54.9841H62.5464C62.8329 54.9841 63.0652 55.2179 63.0652 55.5063C63.0652 55.7947 62.8329 56.0285 62.5464 56.0285Z" fill="#407BFF"/>
<path opacity="0.4" d="M62.5464 56.0285H29.2641C28.9776 56.0285 28.7452 55.7947 28.7452 55.5063C28.7452 55.2179 28.9776 54.9841 29.2641 54.9841H62.5464C62.8329 54.9841 63.0652 55.2179 63.0652 55.5063C63.0652 55.7947 62.8329 56.0285 62.5464 56.0285Z" fill="white"/>
<path d="M47.1599 51.52L45.0599 55.4233" stroke="#2E353A" stroke-width="0.48" stroke-miterlimit="10"/>
<path d="M28.11 46.3739C28.11 46.3739 30.0081 42.9755 30.3192 42.3112C30.63 41.647 31.47 36.9672 31.47 36.9672C31.47 36.9672 31.32 36.5143 31.32 36.2727C31.32 36.0312 31.47 34.9141 31.47 34.9141C31.47 34.9141 31.47 34.8235 32.07 34.6423C32.67 34.4612 33.33 34.2196 33.39 34.4914C33.45 34.7631 33.3 36.635 33.12 36.8162C32.94 36.9974 32.7353 37.2993 32.7353 37.2993C32.7353 37.2993 32.2301 42.2912 32.0001 43.0257C31.77 43.7605 29.88 47.6896 29.88 47.6896L28.11 46.3739Z" fill="#E4897B"/>
<path d="M37.0635 50.5121C37.0635 50.5121 41.7435 52.7077 42.4203 52.9818C43.0971 53.2562 45.1474 53.3487 45.1474 53.3487C45.1474 53.3487 45.588 53.1722 45.8278 53.1582C46.0673 53.1444 47.1843 53.2309 47.1843 53.2309C47.1843 53.2309 47.274 53.2258 47.4881 53.818C47.7022 54.4105 47.9796 55.0598 47.7135 55.1356C47.4473 55.2115 45.5818 55.168 45.3917 54.9975C45.2016 54.827 45.2016 54.827 45.2016 54.827C45.2016 54.827 42.5496 55.3832 41.8075 55.1943C41.0657 55.0052 35.8594 53.3316 35.8594 53.3316L37.0635 50.5121Z" fill="#E4897B"/>
<path d="M30.6407 46.9743C30.5327 47.711 30.1223 48.5781 29.6015 49.3148C28.5887 50.7568 27.1607 51.706 26.7743 50.2157C26.1863 47.9646 28.6799 45.1385 28.6799 45.1385L30.6407 46.9743Z" fill="#407BFF"/>
<path opacity="0.2" d="M30.6407 46.9742C30.5327 47.7109 30.1223 48.5781 29.6015 49.3148C29.3807 49.0636 29.2343 48.7665 29.2799 48.4404C29.4191 47.4332 30.6407 46.9742 30.6407 46.9742Z" fill="black"/>
<path d="M35.6639 45.2858C35.5271 45.7931 35.2463 46.2278 34.8719 46.5684C34.3247 47.0708 33.5807 47.3655 32.8199 47.38C32.1071 47.3921 31.3799 47.1602 30.7847 46.6191C29.6831 45.6192 29.7167 44.4694 29.5847 42.513C29.4527 40.5589 31.5647 39.0686 33.7031 39.8488C35.8415 40.6289 36.1439 43.5298 35.6639 45.2858Z" fill="#E4897B"/>
<path d="M33.0353 38.6049C33.0353 38.6049 34.53 38.0542 35.58 38.9298C36.63 39.8053 36.57 41.9188 35.58 42.9152C35.58 42.9152 35.85 42.5529 35.07 41.6773C34.29 40.8017 33.0353 38.6049 33.0353 38.6049Z" fill="#2E353A"/>
<path opacity="0.2" d="M34.8719 46.5685C34.3247 47.0709 33.5807 47.3656 32.8199 47.3801C33.1247 46.7665 33.4799 46.5685 33.4799 46.5685C33.9311 46.8004 34.4903 46.6917 34.8719 46.5685Z" fill="black"/>
<path d="M35.256 78.5725L35.0016 80.1739L34.7688 81.6521H32.64L32.8248 79.7609L33 77.9493L35.256 78.5725Z" fill="#E4897B"/>
<path d="M34.6478 80.8127L32.4878 80.6772C32.4127 80.669 32.3453 80.7238 32.3371 80.7994C32.3371 80.8002 32.3368 80.8009 32.3368 80.8016L32.1249 82.5165C32.1134 82.704 32.2536 82.866 32.4398 82.8798C33.1941 82.9148 33.556 82.8936 34.5072 82.9458C35.0906 82.9808 36.2404 83.1057 37.0454 83.0272C37.8506 82.9487 37.7517 82.1499 37.4042 82.1117C36.5798 82.0173 35.4878 81.4076 34.9718 80.9448C34.8816 80.8661 34.7673 80.8195 34.6478 80.8127Z" fill="#2E353A"/>
<path d="M35.3102 81.1855C35.1372 81.1705 34.9663 81.1362 34.8007 81.0835C34.7834 81.0797 34.7705 81.0652 34.7688 81.0476C34.7671 81.0299 34.7748 81.0128 34.7889 81.0021C34.853 80.9628 35.4218 80.6232 35.6525 80.7297C35.7053 80.7551 35.7413 80.806 35.7482 80.8645C35.7744 80.9541 35.7468 81.0507 35.6777 81.113C35.5685 81.1823 35.4374 81.2082 35.3102 81.1855ZM35.6143 80.82C35.4914 80.7625 35.1614 80.9048 34.9291 81.0335C35.2689 81.1234 35.5224 81.1282 35.6189 81.0449C35.6597 81.0031 35.6755 80.9427 35.6609 80.8862C35.658 80.8575 35.6402 80.8323 35.6143 80.82Z" fill="#407BFF"/>
<path d="M34.8103 81.0849C34.8043 81.0878 34.7976 81.0886 34.7911 81.0866C34.7786 81.0784 34.7705 81.0649 34.7688 81.0497C34.7698 81.0325 34.7606 80.4661 34.9649 80.2888C35.0196 80.2439 35.0911 80.2253 35.1605 80.2381C35.2392 80.2456 35.303 80.3062 35.315 80.3849C35.345 80.5982 35.0333 80.9859 34.8348 81.0878C34.8266 81.0905 34.8178 81.0895 34.8103 81.0849ZM35.1226 80.3311C35.0863 80.3284 35.0508 80.3412 35.0244 80.3661C34.9008 80.4712 34.8674 80.7893 34.861 80.9717C35.0354 80.8405 35.237 80.5468 35.225 80.4048C35.2229 80.3782 35.208 80.3456 35.1444 80.334L35.1226 80.3311Z" fill="#407BFF"/>
<path opacity="0.2" d="M35.256 78.5725L35.0016 80.1739L32.8248 79.7609L33 77.9493L35.256 78.5725Z" fill="black"/>
<path d="M37.84 66.4068C36.8538 65.0979 34.3029 64.433 32.2499 64.1013L31.5594 69.2826C32.8247 69.5449 33.3498 70.2507 33.4199 70.5413C33.7542 71.9287 32.1599 79.1563 32.1599 79.1563L35.4746 79.9613C35.4746 79.9613 39.5999 68.7427 37.84 66.4068Z" fill="#2E353A"/>
<path opacity="0.2" d="M37.84 66.4068C36.8538 65.0979 34.3029 64.433 32.2499 64.1013L31.5594 69.2826C32.8247 69.5449 33.3498 70.2507 33.4199 70.5413C33.7542 71.9287 32.1599 79.1563 32.1599 79.1563L35.4746 79.9613C35.4746 79.9613 39.5999 68.7427 37.84 66.4068Z" fill="black"/>
<path d="M41.256 78.5725L41.0016 80.1739L40.7688 81.6521H38.64L38.8248 79.7609L39 77.9493L41.256 78.5725Z" fill="#E4897B"/>
<path d="M40.6478 80.8127L38.4878 80.6772C38.4127 80.669 38.3453 80.7238 38.3371 80.7994C38.3371 80.8002 38.3368 80.8009 38.3368 80.8016L38.1249 82.5165C38.1134 82.704 38.2536 82.866 38.4398 82.8798C39.1941 82.9148 39.556 82.8936 40.5072 82.9458C41.0906 82.9808 42.2404 83.1057 43.0454 83.0272C43.8506 82.9487 43.7517 82.1499 43.4042 82.1117C42.5798 82.0173 41.4878 81.4076 40.9718 80.9448C40.8816 80.8661 40.7673 80.8195 40.6478 80.8127Z" fill="#2E353A"/>
<path d="M41.3102 81.1855C41.1372 81.1705 40.9663 81.1362 40.8007 81.0835C40.7834 81.0797 40.7705 81.0652 40.7688 81.0476C40.7671 81.0299 40.7748 81.0128 40.7889 81.0021C40.853 80.9628 41.4218 80.6232 41.6525 80.7297C41.7053 80.7551 41.7413 80.806 41.7482 80.8645C41.7744 80.9541 41.7468 81.0507 41.6777 81.113C41.5685 81.1823 41.4374 81.2082 41.3102 81.1855ZM41.6143 80.82C41.4914 80.7625 41.1614 80.9048 40.9291 81.0335C41.2689 81.1234 41.5224 81.1282 41.6189 81.0449C41.6597 81.0031 41.6755 80.9427 41.6609 80.8862C41.658 80.8575 41.6402 80.8323 41.6143 80.82Z" fill="#407BFF"/>
<path d="M40.8103 81.0849C40.8043 81.0878 40.7976 81.0886 40.7911 81.0866C40.7786 81.0784 40.7705 81.0649 40.7688 81.0497C40.7698 81.0325 40.7606 80.4661 40.9649 80.2888C41.0196 80.2439 41.0911 80.2253 41.1605 80.2381C41.2392 80.2456 41.303 80.3062 41.315 80.3849C41.345 80.5982 41.0333 80.9859 40.8348 81.0878C40.8266 81.0905 40.8178 81.0895 40.8103 81.0849ZM41.1226 80.3311C41.0863 80.3284 41.0508 80.3412 41.0244 80.3661C40.9008 80.4712 40.8674 80.7893 40.861 80.9717C41.0354 80.8405 41.237 80.5468 41.225 80.4048C41.2229 80.3782 41.208 80.3456 41.1444 80.334L41.1226 80.3311Z" fill="#407BFF"/>
<path opacity="0.2" d="M41.256 78.5725L41.0016 80.1739L38.8248 79.7609L39 77.9493L41.256 78.5725Z" fill="black"/>
<path d="M30.8292 46.2974C30.8292 47.4464 30.6965 48.5398 29.9928 49.0509C30.9648 49.8867 32.0508 50.5779 33.2177 51.1033C34.4674 50.2139 33.8894 49.4775 33.8894 49.4775C32.7977 48.8739 33.138 47.4676 33.48 46.5681C33.48 46.5681 33.2114 46.1312 31.68 46.1254C31.0001 46.123 30.8292 46.2974 30.8292 46.2974Z" fill="#E4897B"/>
<path d="M24.9384 62.8569C24.9384 62.8569 22.7057 69.2104 29.0328 69.2104C35.3599 69.2104 35.8704 66.7279 35.3352 63.8038L24.9384 62.8569Z" fill="#2E353A"/>
<path d="M35.3352 63.7856C35.3352 63.7856 42.0799 64.0707 43.84 66.4068C45.6 68.7428 41.4746 79.9613 41.4746 79.9613L38.16 79.1563C38.16 79.1563 39.9816 71.5016 39.2956 70.5125C38.6097 69.5234 34.8784 69.4604 29.8392 69.1957C24.7999 68.9309 35.3352 63.7856 35.3352 63.7856Z" fill="#2E353A"/>
<path d="M29.37 48.863L29.9928 47.3785C29.9928 47.3785 33.5808 47.5085 34.6704 49.1522C35.76 50.7954 29.37 48.863 29.37 48.863Z" fill="#407BFF"/>
<path d="M36.6888 51.1229C36.7968 52.9803 36.6888 56.7967 35.3352 63.8037L24.9384 62.8569C25.0056 61.3763 27.2068 56.3034 26.7388 49.6224C26.6678 48.6285 27.4111 47.765 28.3987 47.6935C28.4191 47.6921 28.4395 47.6908 28.4596 47.6901C28.9708 47.6708 32.0882 48.5971 33.552 48.8186C34.116 48.9225 34.6632 49.0601 35.1288 49.193C36.0043 49.436 36.6304 50.2108 36.6888 51.1229Z" fill="#407BFF"/>
<path opacity="0.2" d="M36.6888 51.1229C36.7968 52.9803 36.6888 56.7967 35.3352 63.8037L24.9384 62.8569C25.0056 61.3763 27.2068 56.3034 26.7388 49.6224C26.6678 48.6285 27.4111 47.765 28.3987 47.6935C28.4191 47.6921 28.4395 47.6908 28.4596 47.6901C28.9708 47.6708 32.0882 48.5971 33.552 48.8186C34.116 48.9225 34.6632 49.0601 35.1288 49.193C36.0043 49.436 36.6304 50.2108 36.6888 51.1229Z" fill="black"/>
<path d="M35.1288 49.193C33.9861 48.9439 33.8604 52.305 34.6903 53.2711C35.5202 54.2373 39.9482 54.9619 39.9482 54.9619L40.769 51.9426C40.769 51.9426 37.1275 49.6284 35.1288 49.193Z" fill="#407BFF"/>
<path d="M30.3816 46.18C30.3816 46.18 28.92 45.7759 28.2401 42.6195C27.5601 39.463 30.5505 38.0541 33.9353 38.7384C37.32 39.4227 35.6671 44.302 32.7201 46.1798C32.7201 46.1798 31.7232 46.6167 30.3816 46.18Z" fill="#2E353A"/>
<path d="M34.0776 43.6158C34.159 44.0071 34.3855 44.3527 34.7112 44.5819C35.1264 44.8573 35.448 44.437 35.4312 43.896C35.412 43.4129 35.1744 42.6762 34.7112 42.6231C34.248 42.5699 33.9648 43.1037 34.0776 43.6158Z" fill="#E4897B"/>
<path d="M44.099 55.7867V56.8147C44.099 57.2708 44.4664 57.6406 44.9196 57.6406H61.3545C61.6411 57.6406 61.8734 57.4068 61.8734 57.1184V55.7865H44.099V55.7867Z" fill="#407BFF"/>
<path opacity="0.6" d="M44.099 55.7867V56.8147C44.099 57.2708 44.4664 57.6406 44.9196 57.6406H61.3545C61.6411 57.6406 61.8734 57.4068 61.8734 57.1184V55.7865H44.099V55.7867Z" fill="white"/>
<path opacity="0.2" d="M61.8734 55.7867H44.099V56.7138H61.8734V55.7867Z" fill="black"/>
<path d="M62.7552 54.9841H43.6574C43.3709 54.9841 43.1385 55.2179 43.1385 55.5063C43.1385 55.7947 43.3709 56.0285 43.6574 56.0285H62.785C63.0893 56.0285 63.3321 55.765 63.3012 55.4525C63.2741 55.1805 63.0266 54.9841 62.7552 54.9841Z" fill="#407BFF"/>
<path opacity="0.6" d="M62.7552 54.9841H43.6574C43.3709 54.9841 43.1385 55.2179 43.1385 55.5063C43.1385 55.7947 43.3709 56.0285 43.6574 56.0285H62.785C63.0893 56.0285 63.3321 55.765 63.3012 55.4525C63.2741 55.1805 63.0266 54.9841 62.7552 54.9841Z" fill="white"/>
<path d="M30.0511 86.7245H31.5501L31.8432 74.0606L31.9296 70.2998H29.6736L29.76 74.0606L30.0511 86.7245Z" fill="#407BFF"/>
<path opacity="0.4" d="M30.0511 86.7245H31.5501L31.8432 74.0606L31.9296 70.2998H29.6736L29.76 74.0606L30.0511 86.7245Z" fill="white"/>
<path opacity="0.2" d="M31.9296 70.2998L31.8432 74.1644H29.76L29.6736 70.2998H31.9296Z" fill="black"/>
<path d="M38.729 86.7245L37.781 70.5654H35.8202L37.1474 86.7245H38.729Z" fill="#407BFF"/>
<path opacity="0.5" d="M37.145 86.7246H38.7276L37.8897 72.4012L37.7817 70.5414H35.8209L35.9721 72.4012L37.145 86.7246Z" fill="white"/>
<path opacity="0.2" d="M35.8209 70.5414L35.9721 72.4737H37.8897L37.7817 70.5414H35.8209Z" fill="black"/>
<path d="M24.4548 86.7245L25.7817 70.5654H23.8209L22.8732 86.7245H24.4548Z" fill="#407BFF"/>
<path opacity="0.5" d="M24.4572 86.7246L25.6298 72.4012L25.781 70.5414H23.8202L23.7122 72.4012L22.8746 86.7246H24.4572Z" fill="white"/>
<path opacity="0.2" d="M25.781 70.5414L25.6298 72.4737H23.7122L23.8202 70.5414H25.781Z" fill="black"/>
<path d="M37.6314 68.4479H23.9704C23.3077 68.4479 22.7704 68.9887 22.7704 69.6556V71.2712H38.8314V69.6556C38.8314 68.9887 38.2941 68.4479 37.6314 68.4479Z" fill="#407BFF"/>
<path d="M29.0719 52.9122L27.8829 53.076L30.2384 70.3847L31.4274 70.2208L29.0719 52.9122Z" fill="#407BFF"/>
<path d="M21.6316 52.9124L20.4426 53.0763L22.7981 70.385L23.9871 70.2211L21.6316 52.9124Z" fill="#407BFF"/>
<g opacity="0.4">
<path d="M29.0719 52.9122L27.8829 53.076L30.2384 70.3847L31.4274 70.2208L29.0719 52.9122Z" fill="white"/>
</g>
<g opacity="0.4">
<path d="M21.6316 52.9124L20.4426 53.0763L22.7981 70.385L23.9871 70.2211L21.6316 52.9124Z" fill="white"/>
</g>
<path d="M39.1183 69.8597H22.4836C22.217 69.8597 22.001 70.0771 22.001 70.3455V70.7856C22.001 71.0539 22.2172 71.2713 22.4836 71.2713H39.1183C39.3849 71.2713 39.6009 71.0537 39.6009 70.7856V70.3455C39.6009 70.0771 39.3849 69.8597 39.1183 69.8597Z" fill="#407BFF"/>
<path opacity="0.6" d="M39.1183 69.8597H22.4836C22.217 69.8597 22.001 70.0771 22.001 70.3455V70.7856C22.001 71.0539 22.2172 71.2713 22.4836 71.2713H39.1183C39.3849 71.2713 39.6009 71.0537 39.6009 70.7856V70.3455C39.6009 70.0771 39.3849 69.8597 39.1183 69.8597Z" fill="white"/>
<path d="M30.7317 58.7757H20.0534L19.2 52.071H29.8785L30.7317 58.7757Z" fill="#407BFF"/>
<path opacity="0.6" d="M30.7317 58.7757H20.0534L19.2 52.071H29.8785L30.7317 58.7757Z" fill="white"/>
</svg>
